<?xml version="1.0" encoding="utf-8"?><svg xmlns="http://www.w3.org/2000/svg" xmlns:xlink="http://www.w3.org/1999/xlink"><symbol viewBox="-1 -1 82 82" id="arrow-next" xmlns="http://www.w3.org/2000/svg"><path d="M54.425 35.123L33.134 13.864a3.074 3.074 0 00-2.121-.879c-.84 0-1.641.36-2.121.879-.56.599-.88 1.319-.88 2.118 0 .799.32 1.558.88 2.118l21.891 21.858-21.891 21.858c-1.201 1.199-1.201 3.077 0 4.236a3.003 3.003 0 004.242 0l20.69-20.659 5.443-5.435-4.842-4.835z"/><path fill="none" d="M0 0h80v80H0z"/></symbol><symbol viewBox="-1 -1 82 82" id="arrow-next-circle" xmlns="http://www.w3.org/2000/svg"><path d="M54.425 35.123L33.134 13.864a3.074 3.074 0 00-2.121-.879c-.84 0-1.641.36-2.121.879-.56.599-.88 1.319-.88 2.118 0 .799.32 1.558.88 2.118l21.891 21.858-21.891 21.858c-1.201 1.199-1.201 3.077 0 4.236a3.003 3.003 0 004.242 0l20.69-20.659 5.443-5.435-4.842-4.835z"/><path d="M40 4c19.85 0 36 16.15 36 36S59.85 76 40 76 4 59.85 4 40 20.15 4 40 4m0-4C17.909 0 0 17.909 0 40s17.909 40 40 40 40-17.909 40-40S62.091 0 40 0z"/><path fill="none" d="M0 0h80v80H0z"/></symbol><symbol viewBox="-1 -1 82 82" id="arrow-prev" xmlns="http://www.w3.org/2000/svg"><path d="M20.733 39.958l5.443 5.435 20.69 20.659a3.003 3.003 0 004.242 0c1.201-1.159 1.201-3.037 0-4.236L29.217 39.958 51.108 18.1c.56-.559.88-1.319.88-2.118 0-.799-.32-1.518-.88-2.118-.48-.519-1.281-.879-2.121-.879-.76 0-1.561.32-2.121.879L25.575 35.123l-4.842 4.835z"/><path fill="none" d="M0 0h80v80H0z"/></symbol><symbol viewBox="-1 -1 82 82" id="arrow-prev-circle" xmlns="http://www.w3.org/2000/svg"><path d="M20.733 39.958l5.443 5.435 20.69 20.659a3.003 3.003 0 004.242 0c1.201-1.159 1.201-3.037 0-4.236L29.217 39.958 51.108 18.1c.56-.559.88-1.319.88-2.118 0-.799-.32-1.518-.88-2.118-.48-.519-1.281-.879-2.121-.879-.76 0-1.561.32-2.121.879L25.575 35.123l-4.842 4.835z"/><path d="M40 4c19.85 0 36 16.15 36 36S59.85 76 40 76 4 59.85 4 40 20.15 4 40 4m0-4C17.909 0 0 17.909 0 40s17.909 40 40 40 40-17.909 40-40S62.091 0 40 0z"/><path fill="none" d="M0 0h80v80H0z"/></symbol><symbol viewBox="-1 -1 22 22" id="back" xmlns="http://www.w3.org/2000/svg"><path d="M16.5 9.5H5.7l5.2-5.1c.2-.2.2-.5 0-.7s-.5-.2-.7 0l-6 6c0 .1-.1.1-.1.2v.4c0 .1.1.1.1.2l6 6c.1.1.2.2.4.2s.3 0 .4-.1c.2-.2.2-.5 0-.7l-5.1-5.1h10.6c.3 0 .5-.2.5-.5s-.2-.8-.5-.8z"/></symbol><symbol viewBox="-1 -1 82 82" id="envelope" xmlns="http://www.w3.org/2000/svg"><path d="M63 20H17a4 4 0 00-4 4v32a4 4 0 004 4h46a4 4 0 004-4V24a4 4 0 00-4-4zm-2.414 4L43.5 37.828c-2.063 1.566-4.94 1.566-6.952.038L19.415 24h41.171zM17 56V27.192l17.08 13.821a9.742 9.742 0 005.904 1.982 9.87 9.87 0 005.984-2.021L63 27.191V56H17z"/><path fill="none" d="M0 0h80v80H0z"/></symbol><symbol viewBox="-1 -1 82 82" id="heart" xmlns="http://www.w3.org/2000/svg"><path d="M60.399 24.817c-5.467-5.467-14.332-5.467-19.799 0-.213.213-.403.44-.599.663-.197-.224-.388-.452-.602-.666-5.467-5.467-14.332-5.467-19.799 0-5.467 5.467-5.467 14.332 0 19.799L40 64l20.4-19.384c5.467-5.467 5.467-14.332-.001-19.799z"/><path fill="none" d="M0 0h80v80H0z"/></symbol><symbol viewBox="-1 -1 82 82" id="menu" xmlns="http://www.w3.org/2000/svg"><path fill="none" d="M0 0h80v80H0z"/><path d="M8.036 22.561h63.929a2.63 2.63 0 000-5.258H8.036a2.63 2.63 0 000 5.258zM71.965 37.37H8.036a2.63 2.63 0 000 5.258h63.929a2.63 2.63 0 000-5.258zm0 20.071H8.036a2.63 2.63 0 000 5.258h63.929a2.63 2.63 0 000-5.258z"/><path fill="none" d="M0 0h80v80H0z"/></symbol><symbol viewBox="-1 -1 82 82" id="talk" xmlns="http://www.w3.org/2000/svg"><path d="M64 15v38H27v12.982L16 54.403V15h48m4-4H12v45l19 20V57h37V11z"/><path fill="none" d="M0 0h80v80H0z"/></symbol></svg>