<?xml version="1.0" encoding="utf-8"?><svg xmlns="http://www.w3.org/2000/svg" xmlns:xlink="http://www.w3.org/1999/xlink"><symbol viewBox="0 0 512 512" id="Facebook" xmlns="http://www.w3.org/2000/svg"><path d="M308.3 508.5c-2.5.1-4.1.3-5.7.3-34.2 0-68.3-.1-102.5.1-4.8 0-6.1-1.3-6.1-6.1.1-79.6.1-159.3.1-238.9V257H139v-85h5.4c15 0 30-.1 45 .1 3.8 0 4.8-1.1 4.8-4.8-.2-22.3-.2-44.7 0-67 .1-15.6 2.6-30.8 9.8-44.9 10.3-19.9 26.6-32.8 47.2-40.8 16.8-6.6 34.5-9 52.3-9.3 29-.4 58-.2 87-.3 2.7 0 4.9-.1 4.9 3.7-.1 27.5-.1 55-.1 82.5 0 .3-.1.6-.5 1.9h-5.5c-18 0-36-.1-54 0-10.4 0-18.8 4.2-24.1 13.3-1.6 2.7-2.6 6.2-2.6 9.4-.3 17 0 34-.2 51 0 4 1.2 5.1 5.1 5.1 25-.2 50-.1 75-.1h7.3c-3.5 28.6-6.9 56.6-10.4 84.9h-77.1v251.8z"/></symbol><symbol viewBox="0 0 32 32" id="Github" xmlns="http://www.w3.org/2000/svg"><path d="M5.7 5S5 6.2 5 8.3c0 1.3.3 2 .5 2.4C4 12.3 3 14.5 3 17.3 3 24.6 7.6 27 16 27s13-2.4 13-9.7c0-2.9-.9-5.1-2.4-6.7.4-1.1.8-3.2-.3-5.6-3.1 0-5.6 2.4-5.7 2.5-1.5-.3-3-.5-4.6-.5-1.6 0-3.2.2-4.7.6C9.3 5.5 6.8 5 5.7 5zm15 10.4c.8 0 1.6.1 2.3.3 1.8.6 3 2.3 3 4.2 0 5.2-2.8 6.1-10 6.1-5.3 0-9.7-.9-9.7-5.9 0-1.9 1-3 1.8-3.7 1.6-1.5 4.2-.7 7.9-.7 1.7 0 3.3-.2 4.7-.3zM10.5 18c-.8 0-1.5.9-1.5 2s.7 2 1.5 2 1.5-.9 1.5-2-.7-2-1.5-2zm11 0c-.8 0-1.5.9-1.5 2s.7 2 1.5 2 1.5-.9 1.5-2-.7-2-1.5-2zm-11.2.8c.3 0 .5.2.5.5 0 .2-.2.4-.5.4-.2 0-.4-.2-.4-.4 0-.3.2-.5.4-.5zm11 0c.3 0 .5.2.5.5 0 .2-.2.4-.5.4-.2 0-.4-.2-.4-.4 0-.3.2-.5.4-.5z"/></symbol><symbol viewBox="0 0 512 512" id="Instagram" xmlns="http://www.w3.org/2000/svg"><path d="M505 257c0 34.8-.7 69.7.2 104.5 1.5 61.6-37.2 109.2-86.5 130.4-19.8 8.5-40.6 13-62.1 13-67.3.1-134.7 1-202-.3-50.7-1-92.4-22.2-122.3-64-15.7-22-23.2-47-23.2-74.1v-215c0-58.5 28.5-99.4 79.1-126C110.2 14 134.1 9.1 159 9c65.3 0 130.7-.4 196 .2 50.7.4 93 19.8 124.2 60.6 17.4 22.8 25.8 49 25.8 77.8V257zm-459 0v110c0 16.4 3.8 31.8 12.3 45.7 22.3 36.5 56 54.3 97.8 55 67.1 1 134.3.4 201.5.2 16.5 0 32.5-3.4 47.4-10.5 40.6-19.4 63.3-50.3 63.1-96.7-.4-71-.1-142-.1-213 0-20.1-5.7-38.5-17.6-54.7-23-31.1-54.8-46.4-92.8-46.8-67-.8-134-.3-201-.2-14.3 0-28.1 2.9-41.5 7.9-36.8 13.7-71 48.4-69.4 99.5 1.2 34.6.3 69.1.3 103.6z"/><path d="M257.6 363c-64.5 0-116.5-51.4-116.6-115.4-.1-63 52.3-114.6 116.4-114.6 64.3-.1 116.5 51.4 116.6 114.9 0 63.4-52.1 115-116.4 115.1zm0-37c43.9 0 79.5-35.1 79.4-78.3-.1-42.8-35.7-77.8-79.4-77.8-43.9 0-79.7 34.9-79.7 78 .1 43.2 35.8 78.2 79.7 78.1zM387.5 98c13.5 0 24.5 11.5 24.5 25.6-.1 14.1-11.2 25.5-24.7 25.4-13.3-.1-24.2-11.5-24.2-25.3C363 109.6 374 98 387.5 98z"/></symbol><symbol viewBox="0 0 66.36 53.1" id="Twitter" xmlns="http://www.w3.org/2000/svg"><path class="dcls-1" d="M66.36 6.29a27.54 27.54 0 0 1-7.8 2.1 13.43 13.43 0 0 0 6-7.43 27 27 0 0 1-8.66 3.26A13.73 13.73 0 0 0 46 0a13.51 13.51 0 0 0-13.66 13.41 13.27 13.27 0 0 0 .34 3 38.81 38.81 0 0 1-28.06-14 13.3 13.3 0 0 0 4.22 17.94 14.12 14.12 0 0 1-6.18-1.67v.14a13.21 13.21 0 0 0 .94 4.88 13.61 13.61 0 0 0 10 8.28 13.76 13.76 0 0 1-3.6.48 12.58 12.58 0 0 1-2.55-.25 13.54 13.54 0 0 0 12.7 9.3 27.51 27.51 0 0 1-16.89 5.75 24.71 24.71 0 0 1-3.26-.2 39.14 39.14 0 0 0 20.89 6c21.26.04 34.36-14.7 37.79-30.06a35.92 35.92 0 0 0 .93-8v-1.76a26.65 26.65 0 0 0 6.78-6.92z"/></symbol><symbol viewBox="0 0 24 24" id="email" xmlns="http://www.w3.org/2000/svg"><path d="M4 4a2 2 0 0 0-2 2v12a2 2 0 0 0 2 2h16a2 2 0 0 0 2-2V6a2 2 0 0 0-2-2H4zm1.598 2h12.804L12 10 5.598 6zM5 8.627L12 13l7-4.373V18H5V8.627z"/></symbol><symbol viewBox="0 0 22.3 22.3" id="linkedin" xmlns="http://www.w3.org/2000/svg"><path d="M5.4 3c0 1.4-1 2.5-2.7 2.5h-.1C1 5.5 0 4.3 0 3 0 1.6 1.1.5 2.7.5S5.3 1.6 5.4 3zM.3 21.8h4.8V7.4H.3v14.4zM16.8 7.1c-2.5 0-3.7 1.4-4.3 2.4V7.4H7.7c.1 1.3 0 14.4 0 14.4h4.8v-8c0-.4 0-.9.2-1.2.3-.9 1.1-1.7 2.4-1.7 1.7 0 2.4 1.3 2.4 3.2v7.7h4.8v-8.2c0-4.5-2.4-6.5-5.5-6.5z"/></symbol><symbol viewBox="0 0 32.46 30.02" id="phone" xmlns="http://www.w3.org/2000/svg"><g data-name="Слой 2"><path d="M30.81 21.29c-.82-.4-4.73-2.32-5.47-2.58s-1.28-.4-1.79.4A38.76 38.76 0 0 1 21 22.2c-.45.54-.91.6-1.73.2a21.64 21.64 0 0 1-6.41-3.94A24.2 24.2 0 0 1 8.42 13c-.45-.79 0-1.22.37-1.62S9.58 10.43 10 10l.28-.37a9.92 9.92 0 0 0 .51-1 1.49 1.49 0 0 0-.06-1.39C10.52 6.86 8.9 3 8.25 1.39S6.92.06 6.43.06 5.44 0 4.9 0a3 3 0 0 0-2.12 1A9 9 0 0 0 0 7.6a9.53 9.53 0 0 0 .4 2.69 18 18 0 0 0 2.86 5.5c.4.54 5.53 8.79 13.63 12s8.11 2.13 9.58 2 4.73-1.93 5.39-3.77a6.52 6.52 0 0 0 .48-3.77 4.72 4.72 0 0 0-1.53-.91z" fill-rule="evenodd" data-name="9"/></g></symbol><symbol viewBox="0 0 24 24" id="skype" xmlns="http://www.w3.org/2000/svg"><path d="M7.5 2C4.5 2 2 4.5 2 7.5c0 1.2.4 2.4 1.1 3.3-.1.4-.1.8-.1 1.2 0 5 4 9 9 9 .4 0 .8 0 1.2-.1.9.7 2.1 1.1 3.3 1.1 3 0 5.5-2.5 5.5-5.5 0-1.2-.4-2.4-1.1-3.3.1-.4.1-.8.1-1.2 0-5-4-9-9-9-.4 0-.8 0-1.2.1C9.9 2.4 8.7 2 7.5 2zm0 2c.8 0 1.5.2 2.1.7l.6.5.8-.1c.4-.1.7-.1 1-.1 3.9 0 7 3.1 7 7 0 .3 0 .6-.1 1l-.1.8.5.6c.5.6.7 1.3.7 2.1 0 1.9-1.6 3.5-3.5 3.5-.8 0-1.5-.2-2.1-.7l-.6-.5-.8.1c-.4.1-.7.1-1 .1-3.9 0-7-3.1-7-7 0-.3 0-.6.1-1l.1-.8-.5-.6C4.2 9 4 8.3 4 7.5 4 5.6 5.6 4 7.5 4zm4.3 3c-3.7 0-4 2.2-4 2.8 0 1 .6 1.9 1.7 2.3 1.1.4 2.5.7 3.3.9 1.2.3 1 1 1 1.1 0 1-1.4 1.3-2 1.2-.7 0-1.3.2-2.1-1.3-.1-.3-.3-.9-1-.9-.3 0-1.1.3-1.1 1 0 1.4 1.6 2.9 4.4 2.9 1.4 0 4.1-.5 4.1-3.1 0-2.3-2.2-2.7-3.9-3.1-.5-.1-2.2-.3-2.2-1.2 0-.3.4-.9 1.7-.9 1.4 0 1.7.6 1.9 1 .1.2.3.4.4.5.6.4 1.2.1 1.4-.1.2-.2.3-.4.3-.7 0-1.1-1.3-2.4-3.9-2.4z"/></symbol><symbol viewBox="0 0 140 140" id="viber" xmlns="http://www.w3.org/2000/svg"><path class="ist161" d="M127.6 114.7c-1.5 3.8-7.1 10.8-11.1 13.8-3.6 2.7-6.1 3.8-9.5 3.9-2.8.1-3.9-.1-7.4-1.6-27.6-11.4-49.7-28.4-67.2-51.7-9.1-12.2-16.1-24.8-20.9-37.9-2.8-7.6-2.9-11-.6-14.9 1-1.6 5.2-5.7 8.2-8 5.1-3.8 7.4-5.2 9.3-5.6 1.3-.3 3.5-.1 4.9.4.7.2 1.7.8 2.4 1.2 3.7 2.5 14.2 15.8 17.6 22.4 1.9 3.8 2.6 6.6 2 8.7-.6 2.2-1.7 3.4-6.3 7.2-1.9 1.5-3.6 3.1-3.9 3.5-.7 1-1.3 3-1.3 4.4 0 3.3 2.2 9.2 4.9 13.8 2.2 3.6 6 8.1 9.9 11.6 4.5 4.1 8.5 6.9 13 9.2 5.8 2.9 9.3 3.6 11.9 2.4.6-.3 1.3-.7 1.6-.9.2-.2 1.7-2 3.4-4.1 3.2-4 3.9-4.7 6.1-5.4 2.8-.9 5.6-.7 8.5.8 2.2 1.1 6.9 4 9.9 6.2 4 2.8 12.6 9.8 13.8 11.2 1.8 2.6 2.1 5.9.8 9.4z"/><path class="ist79" d="M126.5 105.4c-1.2-1.4-9.7-8.4-13.8-11.2-3.1-2.1-7.8-5-9.9-6.2-2.9-1.5-5.7-1.7-8.5-.8-.4.2-.8.3-1.2.5 0 0 0 .1-.1.1-1.7 2-3.2 3.9-3.4 4.1-.2.2-.9.6-1.5.9-1.6 2-3.1 3.8-3.3 4-.2.2-.9.6-1.6.9-2.6 1.2-6.1.5-11.9-2.4-4.5-2.2-8.5-5-13-9.2-3.8-3.5-7.7-8.1-9.9-11.6-2.8-4.6-4.9-10.5-4.9-13.8 0-1.4.6-3.4 1.3-4.4.3-.4 2-2 3.9-3.5.1-.1.3-.2.4-.3l.5-1c.3-.4 2-2 3.9-3.5.3-.2.6-.4.8-.7.3-.5.5-1.1.7-1.7.6-2.1 0-4.9-2-8.7-3.4-6.6-13.8-19.9-17.6-22.4-.6-.4-1.7-.9-2.4-1.2-1.4-.5-3.6-.7-4.9-.4-1.9.4-4.2 1.8-9.3 5.6-.8.6-1.7 1.4-2.6 2.2-.3.4-.6.7-.7 1-2.3 3.9-2.1 7.2.6 14.9C20.9 49.7 27.8 62.3 37 74.5c17.5 23.3 39.6 40.3 67.2 51.7 3.5 1.5 4.7 1.7 7.4 1.6 3.4-.2 5.9-1.2 9.5-3.9.2-.1.3-.2.5-.4 2.6-3 4.9-6.4 5.8-8.6 1.5-3.7 1.2-7-.9-9.5z"/><path class="ist166" d="M54.1 8.7c1.2-1.1 2-1.2 6.1-1.1 2.1.1 5.3.3 7 .5C76 9.2 83 11.3 90.7 15c7.6 3.7 12.4 7.2 18.9 13.6 6 6 9.3 10.6 12.9 17.7 4.9 9.9 7.7 21.6 8.2 34.6.2 4.4.1 5.4-1 6.7-1.9 2.4-6.1 2-7.6-.7-.5-.9-.6-1.7-.7-5.2-.3-5.4-.6-8.9-1.4-13.1-3-16.5-10.9-29.6-23.5-39C86.1 21.7 75.2 17.9 61 17c-4.8-.3-5.6-.5-6.7-1.3-2-1.5-2.1-5.3-.2-7z"/><path class="ist161" d="M84.2 41.2c-5.1-3-12.6-5.3-19.4-5.8-2.5-.2-3.8-.7-4.8-1.8-1.4-1.6-1.6-3.9-.4-5.7 1.3-2 3.3-2.4 9.4-1.5 15.3 2.2 27.2 9.4 35 20.9 4.4 6.5 7.1 14.2 8 22.4.3 3 .3 8.5 0 9.4-.3.9-1.4 2-2.3 2.5-1 .5-3.1.5-4.2-.2-1.9-1-2.5-2.5-2.5-6.8 0-6.5-1.7-13.4-4.6-18.8-3.4-6.1-8.2-11.1-14.2-14.6z"/><path class="ist79" d="M92.8 74.8c-1.5 1.4-4.2 1.4-5.9.1-1.2-.9-1.6-1.9-1.9-4.5-.3-3.5-.9-5.9-2-8.1-2.2-4.8-6.1-7.2-12.8-8.1-3.1-.4-4-.7-5.1-1.9-1.8-2.2-1.1-5.8 1.4-7.1 1-.5 1.4-.5 3.5-.4 1.3.1 3.3.3 4.3.5 5 1.1 8.8 3 12 6 4.2 4 6.5 8.8 7.5 15.6.8 4.7.6 6.5-1 7.9z"/><path class="ist26" d="M61 17c14.2.8 25 4.7 35.5 12.5 12.6 9.4 20.5 22.5 23.5 39 .8 4.2 1.1 7.7 1.4 13.1.1 3.5.3 4.3.7 5.2 1.4 2.7 5.7 3.2 7.6.7 1-1.3 1.1-2.2 1-6.7-.5-12.9-3.3-24.7-8.2-34.6-3.5-7.1-6.9-11.7-12.9-17.7-6.4-6.4-11.3-9.9-18.9-13.6C83 11.3 76 9.2 67.3 8.1c-1.7-.2-4.9-.5-7-.5-4.1-.1-5 0-6.1 1.1-1.9 1.7-1.8 5.5.2 7.1 1 .8 1.8 1 6.6 1.2z"/><path class="ist26" d="M103 74.6c0 4.2.6 5.8 2.5 6.8 1.2.6 3.3.7 4.2.2.9-.5 2-1.6 2.3-2.5.4-.9.4-6.4 0-9.4-.9-8.2-3.7-15.8-8-22.4-7.8-11.6-19.7-18.7-35-20.9-6-.9-8.1-.6-9.4 1.5-1.2 1.8-1.1 4.1.4 5.7.9 1.1 2.3 1.6 4.8 1.8 6.8.6 14.4 2.8 19.4 5.8 5.9 3.5 10.8 8.5 14.1 14.7 3 5.3 4.7 12.2 4.7 18.7z"/><path class="ist26" d="M74.4 45.5c-1-.2-3-.5-4.3-.5-2.1-.1-2.5-.1-3.5.4-2.6 1.3-3.3 4.9-1.4 7.1 1 1.2 1.9 1.5 5.1 1.9 6.6.8 10.5 3.3 12.8 8.1 1 2.2 1.6 4.7 2 8.1.3 2.6.7 3.6 1.9 4.5 1.7 1.3 4.4 1.2 5.9-.1 1.6-1.5 1.9-3.2 1.2-7.7-1-6.9-3.3-11.7-7.5-15.6-3.4-3.3-7.2-5.2-12.2-6.2z"/><path class="ist26" d="M126.5 105.4c-1.2-1.4-9.7-8.4-13.8-11.2-3.1-2.1-7.8-5-9.9-6.2-2.9-1.5-5.7-1.7-8.5-.8-2.2.7-2.9 1.4-6.1 5.4-1.7 2-3.2 3.9-3.4 4.1-.1 0-.1.1-.2.2-.3.2-.8.4-1.2.7h-.1c-2.6 1.2-6.1.5-11.9-2.4-4.5-2.2-8.5-5-13-9.2-3.8-3.5-7.7-8.1-9.9-11.6-2.8-4.6-4.9-10.5-4.9-13.8 0-1.4.6-3.4 1.3-4.4l.2-.2.1-.1.1-.1.2-.2.1-.1.3-.3c.7-.7 1.8-1.6 2.9-2.5 4.7-3.8 5.7-4.9 6.3-7.2.6-2.1 0-4.9-2-8.7-3.4-6.6-13.8-19.9-17.6-22.4-.6-.4-1.7-.9-2.4-1.2-1.4-.5-3.6-.7-4.9-.4-1.9.4-4.2 1.8-9.3 5.6-3 2.3-7.2 6.4-8.2 8-2.3 3.9-2.1 7.2.6 14.9 3.6 10 8.6 19.8 14.8 29.3 0 .1.1.1.1.2.9 1.4 1.8 2.8 2.8 4.1 1 1.5 2.1 2.9 3.2 4.3 10.1 13.5 21.8 24.9 35.2 34.3.9.7 1.9 1.3 2.8 2 .6.4 1.2.8 1.8 1.1.8.5 1.6 1.1 2.5 1.6.6.4 1.3.8 1.9 1.1.8.5 1.6 1 2.5 1.5.6.4 1.3.7 1.9 1.1.8.5 1.7.9 2.6 1.4.6.3 1.3.7 1.9 1 .9.5 1.8.9 2.7 1.4.6.3 1.2.6 1.9.9 1 .5 2.1 1 3.1 1.5.5.2 1.1.5 1.6.7l4.8 2.1c3.5 1.5 4.7 1.7 7.4 1.6 3.4-.2 5.9-1.2 9.5-3.9 4-3 9.6-10 11.1-13.8 1.5-3.6 1.2-6.9-.9-9.4z"/></symbol></svg>