<?xml version="1.0" encoding="utf-8"?><svg xmlns="http://www.w3.org/2000/svg" xmlns:xlink="http://www.w3.org/1999/xlink"><symbol viewBox="-1.02 -1.02 514.05 514.05" id="Facebook" xmlns="http://www.w3.org/2000/svg"><path d="M308.3 508.5c-2.5.1-4.1.3-5.7.3-34.2 0-68.3-.1-102.5.1-4.8 0-6.1-1.3-6.1-6.1.1-79.6.1-159.3.1-238.9V257H139v-85h5.4c15 0 30-.1 45 .1 3.8 0 4.8-1.1 4.8-4.8-.2-22.3-.2-44.7 0-67 .1-15.6 2.6-30.8 9.8-44.9 10.3-19.9 26.6-32.8 47.2-40.8 16.8-6.6 34.5-9 52.3-9.3 29-.4 58-.2 87-.3 2.7 0 4.9-.1 4.9 3.7-.1 27.5-.1 55-.1 82.5 0 .3-.1.6-.5 1.9h-5.5c-18 0-36-.1-54 0-10.4 0-18.8 4.2-24.1 13.3-1.6 2.7-2.6 6.2-2.6 9.4-.3 17 0 34-.2 51 0 4 1.2 5.1 5.1 5.1 25-.2 50-.1 75-.1h7.3c-3.5 28.6-6.9 56.6-10.4 84.9h-77.1v251.8z"/></symbol><symbol viewBox="-1 -1 26 26" fill="none" stroke="currentColor" stroke-width="2" stroke-linecap="round" stroke-linejoin="round" id="arrow_left_icon" xmlns="http://www.w3.org/2000/svg"><path d="M19 12H5m7 7l-7-7 7-7"/></symbol><symbol viewBox="-1 -1 26 26" fill="none" stroke="currentColor" stroke-width="2" stroke-linecap="round" stroke-linejoin="round" id="arrow_right_icon" xmlns="http://www.w3.org/2000/svg"><path d="M5 12h14m-7-7l7 7-7 7"/></symbol><symbol viewBox="-1 -1 18 24" id="athlete" xmlns="http://www.w3.org/2000/svg"><g fill="none"><path d="M0 0h24v24H0z"/><path d="M13.5 5.5c1.1 0 2-.9 2-2s-.9-2-2-2-2 .9-2 2 .9 2 2 2zm-3.2 12l.6-2.5 2.1 2v5c0 .5.4 1 1 1 .5 0 1-.5 1-1v-5.7c0-.5-.2-1-.6-1.4l-1.5-1.4.6-3c1.1 1.2 2.6 2.1 4.4 2.4.6.1 1.1-.4 1.1-1 0-.5-.4-.9-.9-1-1.5-.2-2.7-1.1-3.4-2.3l-1-1.6c-.4-.6-1-1-1.7-1-.3 0-.5.1-.8.1l-4 1.7c-.7.3-1.2 1-1.2 1.8V12c0 .5.4 1 1 1 .5 0 1-.5 1-1V9.6l1.8-.7L8.2 17l-3.9-.8c-.6-.1-1.1.2-1.2.8-.1.5.2 1.1.8 1.2L8 19c1 .2 2.1-.5 2.3-1.5z" fill="currentColor"/></g></symbol><symbol viewBox="-1.02 -1.02 514.05 514.05" fill="none" id="barbell" xmlns="http://www.w3.org/2000/svg"><path d="M86.015 330.308l-47.416-47.416 55.918-55.918 184.759 184.759-55.918 55.918-44.8-44.8m-92.543-92.543l-51.013 51.013 45.78 45.781m5.233-96.794l92.543 92.543m0 0l-51.013 51.013-46.762-46.762m-34.336 34.336l34.336-34.336M329.308 87.015l-47.416-47.416-55.918 55.918 92.379 92.38m10.955-100.882l51.013-51.013 45.781 45.78m-96.794 5.233l92.543 92.543m0 0l44.8 44.8-55.918 55.918-92.38-92.379m103.498-8.339l51.013-51.013-46.762-46.762m34.336-34.336l-34.336 34.336M318.353 187.897L186.896 319.353" stroke="currentColor" stroke-width="40"/></symbol><symbol viewBox="-1 -1 15.9 15.9" id="bear" xmlns="http://www.w3.org/2000/svg"><path d="M13.9 3.6c0-1.1-.9-2-2-2-1 0-1.9.8-2 1.8-.8-.5-1.8-.8-2.9-.8-1.1 0-2.1.3-2.9.8-.1-1-1-1.8-2-1.8-1.1 0-2 .9-2 2s.9 2 2 2c-.2.6-.4 1.2-.4 1.8 0 2.7 2.4 4.9 5.3 4.9s5.3-2.2 5.3-4.9c0-.6-.1-1.2-.4-1.8 1.1 0 2-.9 2-2zM2 4.9C1.3 4.9.7 4.3.7 3.6c0-.7.6-1.3 1.3-1.3s1.3.6 1.3 1.3v.3c-.3.3-.6.6-.8 1-.1.1-.3.1-.4.1zm4.9 6.7c-2.5 0-4.6-1.9-4.6-4.2s2-4.2 4.6-4.2c2.5 0 4.6 1.9 4.6 4.2s-2 4.2-4.6 4.2zm4.5-6.8c-.2-.4-.5-.7-.8-1v-.3c0-.7.6-1.3 1.3-1.3s1.3.6 1.3 1.3c0 .7-.6 1.3-1.3 1.3-.2 0-.3 0-.4-.1zM4.6 6.3c-.3 0-.6.3-.6.6s.3.6.6.6.6-.3.6-.6-.3-.6-.6-.6zm4.6 0c-.3 0-.6.3-.6.6s.3.6.6.6.6-.3.6-.6-.3-.6-.6-.6zM7.3 9.4v-.5l.4-.5-.2-.2h-1l-.2.2.4.5v.5c0 .1-.1.2-.2.2H5.4c0 .4.1.7.5.7h.7c.2 0 .4-.1.5-.2.1.1.3.2.5.2h.7c.4 0 .5-.3.5-.7H7.7c-.1 0-.2-.1-.2-.2z" fill="currentColor"/></symbol><symbol viewBox="-1 -1 26 26" fill="none" stroke="currentColor" stroke-width="2" stroke-linecap="round" stroke-linejoin="round" id="check_circle_icon" xmlns="http://www.w3.org/2000/svg"><path d="M22 11.08V12a10 10 0 11-5.93-9.14"/><path d="M22 4L12 14.01l-3-3"/></symbol><symbol viewBox="-1 -1 26 26" fill="none" stroke="currentColor" stroke-width="2" stroke-linecap="round" stroke-linejoin="round" id="check_icon" xmlns="http://www.w3.org/2000/svg"><path d="M20 6L9 17l-5-5"/></symbol><symbol viewBox="-1 -1 26 26" fill="none" stroke="currentColor" stroke-width="2" stroke-linecap="round" stroke-linejoin="round" id="down_icon" xmlns="http://www.w3.org/2000/svg"><path d="M6 9l6 6 6-6"/></symbol><symbol viewBox="-1.02 -1.02 514.05 514.05" id="instagram" xmlns="http://www.w3.org/2000/svg"><path d="M505 257c0 34.8-.7 69.7.2 104.5 1.5 61.6-37.2 109.2-86.5 130.4-19.8 8.5-40.6 13-62.1 13-67.3.1-134.7 1-202-.3-50.7-1-92.4-22.2-122.3-64-15.7-22-23.2-47-23.2-74.1v-215c0-58.5 28.5-99.4 79.1-126C110.2 14 134.1 9.1 159 9c65.3 0 130.7-.4 196 .2 50.7.4 93 19.8 124.2 60.6 17.4 22.8 25.8 49 25.8 77.8V257zm-459 0v110c0 16.4 3.8 31.8 12.3 45.7 22.3 36.5 56 54.3 97.8 55 67.1 1 134.3.4 201.5.2 16.5 0 32.5-3.4 47.4-10.5 40.6-19.4 63.3-50.3 63.1-96.7-.4-71-.1-142-.1-213 0-20.1-5.7-38.5-17.6-54.7-23-31.1-54.8-46.4-92.8-46.8-67-.8-134-.3-201-.2-14.3 0-28.1 2.9-41.5 7.9-36.8 13.7-71 48.4-69.4 99.5 1.2 34.6.3 69.1.3 103.6z"/><path d="M257.6 363c-64.5 0-116.5-51.4-116.6-115.4-.1-63 52.3-114.6 116.4-114.6 64.3-.1 116.5 51.4 116.6 114.9 0 63.4-52.1 115-116.4 115.1zm0-37c43.9 0 79.5-35.1 79.4-78.3-.1-42.8-35.7-77.8-79.4-77.8-43.9 0-79.7 34.9-79.7 78 .1 43.2 35.8 78.2 79.7 78.1zM387.5 98c13.5 0 24.5 11.5 24.5 25.6-.1 14.1-11.2 25.5-24.7 25.4-13.3-.1-24.2-11.5-24.2-25.3C363 109.6 374 98 387.5 98z"/></symbol><symbol viewBox="-1 -1 26 26" id="medal" xmlns="http://www.w3.org/2000/svg"><path d="M12 6.34L9.59 2H1.38l5.47 10.94a6 6 0 1010.3 0L22.62 2h-8.21zM8.41 4l2.44 4.4-1.14 2.06a6 6 0 00-1.44.85L4.62 4zM12 20a4 4 0 010-8v1.33V12a4 4 0 010 8zm7.38-16l-3.65 7.31A6 6 0 0012.25 10l3.34-6z"/></symbol><symbol viewBox="-1 -1 26 26" fill="none" stroke="currentColor" stroke-width="2" stroke-linecap="round" stroke-linejoin="round" id="plus_circle_icon" xmlns="http://www.w3.org/2000/svg"><circle cx="12" cy="12" r="10"/><path d="M12 8v8m-4-4h8"/></symbol><symbol viewBox="-1 -1 34 34" id="tel" xmlns="http://www.w3.org/2000/svg"><path d="M31 2.6l-.9-.9C29 .6 27.4 0 25.5 0 20.8 0 14.4 3.4 8.9 8.9c-8 7.9-11.1 17.2-7.2 21.2l.9.9c.7.7 1.6 1 2.5 1 1 0 1.8-.4 2.5-1l3.6-3.6c1.4-1.4 1.4-3.6 0-5l-.9-.9c-1-1-.5-3.4 3.6-7.5 3.5-3.5 5.5-4 6.4-4 .5 0 .8.1 1.1.4l.9.9c1.3 1.3 3.7 1.3 5 0l3.6-3.6c.7-.7 1-1.6 1-2.5.1-1-.2-1.9-.9-2.6zm-1.4 3.6L26 9.8c-.6.6-1.6.6-2.2 0l-.9-.9c-.7-.7-1.6-1-2.6-1-2.1 0-4.8 1.6-7.9 4.6-6.3 6.3-4.6 9.4-3.6 10.4l.9.9c.6.6.6 1.6 0 2.2l-3.6 3.6c-.6.6-1.6.6-2.2 0l-.9-.9c-3-3 .3-11.4 7.2-18.3 5-5 11-8.3 15.2-8.3 1.4 0 2.5.4 3.2 1.1l.9.9c.3.3.4.7.4 1.1.1.3 0 .7-.3 1z"/></symbol><symbol viewBox="-1 -1 34 34" id="user" xmlns="http://www.w3.org/2000/svg"><path d="M16 22c5 0 9-4.9 9-11S21 0 16 0c-2.4 0-4.7 1.2-6.4 3.3C7.9 5.4 7 8.1 7 11c0 6.1 4 11 9 11zm0-20c3.9 0 7 4 7 9s-3.1 9-7 9-7-4-7-9 3.1-9 7-9zm7 18c-.6 0-1 .4-1 1s.4 1 1 1c3.9 0 7 3.1 7 7 0 .6-.4 1-1 1H3c-.6 0-1-.4-1-1 0-3.9 3.1-7 7-7 .6 0 1-.4 1-1s-.4-1-1-1c-5 0-9 4-9 9 0 1.7 1.3 3 3 3h26c1.7 0 3-1.3 3-3 0-5-4-9-9-9z"/></symbol><symbol viewBox="-1 -1 66 66" id="vk" xmlns="http://www.w3.org/2000/svg"><path d="M4 13.9h7.1c.9 0 1.6.6 1.9 1.4.9 2.6 2.9 8.3 5.2 12.2 3.1 5.1 5.1 7 6.4 6.8 1.3-.3.9-3.7.9-6.4s.3-7.3-1-9.4l-2-2.9a1 1 0 01.8-1.6h11.4c1.1 0 2 .9 2 2v14.5s.5 2.6 3.3-.1 5.8-7.7 8.3-12.8l1-2.4c.3-.7 1-1.2 1.8-1.2h7.4c1.4 0 2.4 1.4 1.9 2.7l-.8 2.1s-2.7 5.4-5.5 9.2c-2.8 3.9-3.4 4.8-3 5.8.4 1 7.6 7.7 9.4 10.9.5.9.9 1.7 1.3 2.4.7 1.3-.3 3-1.8 3h-8.4c-.7 0-1.4-.4-1.7-1l-.8-1.3s-5.1-6-8.2-7.9c-3.2-1.8-3.1.8-3.1.8V46c0 2.2-1.8 4-4 4h-2s-11 0-19.8-13.1C5.1 26.7 2.8 20.1 2 16.3c-.2-1.2.7-2.4 2-2.4z"/></symbol><symbol viewBox="-1.39 -1.39 699.09 699.09" id="woman" xmlns="http://www.w3.org/2000/svg"><path d="M207.6 696.3c-6 0-10.9-4.9-10.9-10.9s4.9-10.9 10.9-10.9h337.3c6 0 10.9 4.9 10.9 10.9s-4.9 10.9-10.9 10.9H207.6zm393.5 0h42.2c6 0 10.9-4.9 10.9-10.9v-.3c0-80.4-16.6-152.3-51.3-210-33-54.9-82.1-97-148.9-121.4-5.6-2-11.9.9-13.9 6.5s.9 11.9 6.5 13.9c61.8 22.6 107.2 61.4 137.7 112.1 31 51.7 46.6 116 48 188.3h-31.2c-6 0-10.9 4.9-10.9 10.9s4.9 10.9 10.9 10.9zM242.3 353.7c-66.7 24.4-115.9 66.4-148.9 121.4C58.7 533 42.2 604.9 42.2 685.4c0 6 4.9 10.9 10.9 10.9S64 691.4 64 685.4c0-76.7 15.5-144.9 48.1-199.2 30.4-50.7 75.9-89.5 137.7-112.1 5.6-2 8.5-8.3 6.5-13.9s-8.4-8.5-14-6.5zm-133 342.6c-6 0-10.9-4.9-10.9-10.9s4.9-10.9 10.9-10.9h42.2c6 0 10.9 4.9 10.9 10.9s-4.9 10.9-10.9 10.9h-42.2zm196-250.8l35.1-35.1c4.2-4.2 11.2-4.2 15.4 0l35.1 35.1c4.2 4.2 4.2 11.2 0 15.4L355.8 496c-4.2 4.2-11.1 4.2-15.4 0l-35.1-35.1c-4.2-4.2-4.2-11.1 0-15.4zm42.9-12l-19.7 19.7 19.7 19.7 19.7-19.7-19.7-19.7zm49.5 200.4c2.1 5.6-.8 11.9-6.5 13.9-5.6 2.1-11.9-.8-13.9-6.5L348.2 562l-29.1 79.3c-2.1 5.6-8.3 8.5-13.9 6.5-5.6-2.1-8.5-8.3-6.5-13.9L338 526.8c1.1-2.9 3.3-5.3 6.5-6.5 5.6-2.1 11.9.8 13.9 6.5l39.3 107.1z"/><path d="M518.4 607.6c-2.3-5.5.3-11.9 5.8-14.2 5.5-2.3 11.9.3 14.2 5.8 5.7 13.4 10.1 27.6 13 42.2 2.9 14.4 4.4 29.1 4.4 44.1 0 6-4.9 10.9-10.9 10.9s-10.9-4.9-10.9-10.9c0-13.8-1.4-27.1-3.9-39.8-2.6-13.3-6.6-26-11.7-38.1zm-356.1 77.8c0 6-4.9 10.9-10.9 10.9s-10.9-4.9-10.9-10.9c0-14.9 1.5-29.7 4.4-44.1 2.9-14.6 7.4-28.8 13-42.2 2.3-5.5 8.7-8.1 14.2-5.8s8.1 8.7 5.8 14.2c-5.1 12.1-9.1 24.9-11.7 38-2.5 12.8-3.9 26.1-3.9 39.9zm6.4-506.3c.3-6 5.3-10.6 11.3-10.4 6 .2 10.6 5.3 10.4 11.3 0 .2-3.1 84.3-42 118.5 9.1 3.1 19.3 5.4 29.3 5.9 15.1.7 29.5-3 36.7-15.8l.3-.5c2.9-5.3 9.4-7.2 14.7-4.4 5.3 2.9 7.2 9.5 4.4 14.7l-.3.5v.1c-12 21.7-34 28.2-56.7 27-20.7-1-42.2-8.6-56.1-16h-.1l-1.2-.6c-2.4-1.3-4.3-3.5-5.2-6.3-1.7-5.7 1.5-11.8 7.2-13.6 43.6-13.4 47.3-110.2 47.3-110.4zm337.3.9c-.2-6 4.4-11.1 10.4-11.3 6-.2 11.1 4.4 11.3 10.4 0 .3 3.7 97 47.4 110.5 5.7 1.7 8.9 7.8 7.2 13.6-.9 2.8-2.8 5-5.2 6.3l-1.2.6c-13.8 7.4-35.3 15-56.1 16-22.7 1.1-44.7-5.3-56.7-27v-.1l-.3-.5c-2.9-5.3-.9-11.9 4.4-14.7s11.9-.9 14.7 4.4l.3.5c7.2 12.8 21.6 16.5 36.7 15.8 10-.5 20.2-2.8 29.3-5.9C509.1 264.3 506 180.2 506 180z"/><path d="M348.2 0c49.6 0 94.5 20.1 126.9 52.6 32.5 32.5 52.6 77.4 52.6 127 0 49.5-20.1 94.4-52.6 126.9s-77.4 52.6-126.9 52.6c-49.6 0-94.5-20.1-126.9-52.6l-.6-.7c-32.1-32.4-52-77.1-52-126.3 0-49.5 20.1-94.4 52.6-126.9C253.7 20.1 298.6 0 348.2 0zm111.5 68c-28.5-28.6-68-46.2-111.5-46.2s-83 17.7-111.5 46.2c-28.5 28.5-46.1 68-46.1 111.5 0 43.3 17.5 82.6 45.7 111l.5.5c28.5 28.5 68 46.2 111.5 46.2 43.6 0 83.1-17.7 111.5-46.1 28.5-28.5 46.1-68 46.1-111.5 0-43.6-17.7-83.1-46.2-111.6z"/><path d="M348.2 0c40.8 0 78.4 13.6 108.6 36.6l.7.6c30.5 23.4 53.2 56.4 63.7 94.5 1.6 5.8-1.8 11.7-7.5 13.3-1 .3-1.9.4-2.9.4H372.7c-26.3 0-50.2-10.8-67.6-28.1v-.1C287.8 99.9 277 75.9 277 49.7V22c0-4.9 3.3-9 7.7-10.4 9.8-3.7 20.1-6.6 30.8-8.6s21.7-3 32.7-3zm95.4 53.8c-26.5-20.1-59.6-32-95.4-32-10 0-19.6.9-28.7 2.6-7 1.3-13.9 3.1-20.7 5.3v20.1c0 20.3 8.3 38.8 21.7 52.2l.1.1c13.4 13.4 31.9 21.7 52.2 21.7h123.1c-10.5-27.7-28.6-51.7-51.7-69.4l-.6-.6z"/><path d="M175.4 130.7c7.6-27.1 21.5-51.6 39.9-71.8C234 38.3 257.5 22 284 11.9c5.6-2.1 11.9.7 14 6.3.5 1.3.7 2.6.7 3.9v27.6c0 26.3-10.8 50.3-28.1 67.6l-.7.6c-17.3 17-41 27.5-66.9 27.5h-17.4c-6 0-10.9-4.9-10.9-10.9 0-1.3.3-2.6.7-3.8zm56-57.2c-13.2 14.5-23.7 31.5-30.8 50.2h2.5c20 0 38.3-8.1 51.6-21.1l.6-.6C268.7 88.6 277 70.1 277 49.8V38.7c-17.3 8.7-32.8 20.6-45.6 34.8zm160.3 209c5.5-2.3 11.9.3 14.2 5.8 2.3 5.5-.3 11.9-5.8 14.2-8.1 3.4-16.6 6.1-25.4 7.8-8.7 1.7-17.6 2.7-26.5 2.7-8.9 0-17.8-.9-26.5-2.7-8.8-1.8-17.3-4.4-25.4-7.8-5.5-2.3-8.1-8.7-5.8-14.2s8.7-8.1 14.2-5.8c6.8 2.9 13.9 5.1 21.3 6.6 7 1.4 14.5 2.2 22.3 2.2 7.8 0 15.3-.7 22.3-2.2 7.2-1.5 14.3-3.7 21.1-6.6zm-151 90.9c-5.2-2.9-7.1-9.5-4.2-14.7 2.9-5.2 9.5-7.1 14.7-4.2 14.6 8.1 30.3 14.4 46.7 18.7 15.9 4.1 32.7 6.3 50.1 6.3s34.2-2.2 50.1-6.3l.5-.1c16.3-4.2 31.9-10.5 46.3-18.6 5.2-2.9 11.8-1 14.7 4.2 2.9 5.2 1 11.8-4.2 14.7-16 8.9-33.3 15.9-51.5 20.6l-.4.1c-17.8 4.6-36.4 7.1-55.5 7.1s-37.7-2.4-55.6-7.1c-18.1-4.7-35.5-11.8-51.7-20.7z"/></symbol><symbol viewBox="-1 -1 50 50" id="wrestling" xmlns="http://www.w3.org/2000/svg"><path d="M46.3 38.5l-5.1-4.3 1.8-6.7c0-.1 0-.2.1-.3V27c.1-1-.2-2-1-2.8l-6-6.2c-1.3-1.3-3.3-1.3-4.6-.3-.1 0-.1.1-.2.2l-.1.1v.1l-2.5 2.4c-.1.1-.2.3-.3.5l-1.8 4.4-4.4 1.8c-.8.3-1.1 1.2-.8 1.9-.1.5.5.9 1.1.9.2 0 .4 0 .6-.1l5-2c.4-.2.7-.5.8-.8L31 24l3.5 3.5-4.8 4c-.3.3-.5.6-.6 1l-2 7c-.3 1.1.3 2.2 1.4 2.5h.5c.9 0 1.7-.6 1.9-1.5l1.8-6.4 4.7-3.3-.5 3.9c-.1.7.2 1.4.7 1.8l6 5c.9.7 2.1.6 2.8-.3.8-.8.7-2-.1-2.7z"/><path d="M26 22.3c-.1-.8-.9-1.4-1.7-1.2l-4.8.8-2.5-5.5c-.1-.3-.4-.5-.6-.7 0 0-1.7-1.1-2.2-1.3-1.7-.9-3.8-.2-4.7 1.6l-4.1 8.2C5 25 5 26 5 26l1 7.2-4.5 5.4c-.7.8-.6 2.1.3 2.8.9.7 2.1.6 2.8-.3l5-6c.3-.4.5-.8.5-1.3v-4.4l5.2 4.5 1.8 6.4c.2 1.1 1 1.7 1.9 1.7.2 0 .4 0 .6-.1 1.1-.3 1.7-1.4 1.4-2.5l-2-7c-.1-.4-.3-.7-.6-1l-5.3-5.6 2.3-4.6 1.8 2.7c.2.6.8.9 1.4.9h.2l6-1c.8 0 1.3-.7 1.2-1.5zM16.5 6C18.4 6 20 7.6 20 9.5S18.4 13 16.5 13 13 11.4 13 9.5 14.6 6 16.5 6m11 5c1.9 0 3.5 1.6 3.5 3.5S29.4 18 27.5 18 24 16.4 24 14.5s1.6-3.5 3.5-3.5"/><path d="M18.3 31.5L13 25.9l2.3-4.6 2.1-4.2-.4-.7c-.1-.3-.4-.5-.6-.7 0 0-1.7-1.1-2.2-1.3-1.7-.9-3.8-.2-4.7 1.6l-4.1 8.2C5 25 5 26 5 26l1 7h4v-3.4l5.2 4.5 3.1-2.6zm22.8 2.7l1.8-6.7c0-.1 0-.2.1-.3V27c.1-1-.2-2-1-2.8L36 18c-1.3-1.3-3.3-1.3-4.6-.3-.1 0-.1.1-.2.2l-.1.1v.1l-2.5 2.4c-.1.1-.2.3-.3.5l2.2 2.3c.1.1.1.2.2.3l4 4-4.8 4 3 2.7 4.7-3.3-.5 3.9 4-.7z"/></symbol></svg>