<svg xmlns="http://www.w3.org/2000/svg" viewBox="0 0 300 300">
	<style type="text/css">
		.st0{fill:#EAE78C;}
		.st1{fill:#7DB72A;}
		.st2{fill:#F2ED41;}
		.st3{fill:#EF6630;}
		.st4{fill:#54870C;}
		.st5{fill:#3D3A04;}
		.st6{fill:#B5AA21;}
	</style>
	<path class="st0" d="M163.9 88.3c0 0-1.1-11.5 0.5-14.9 1.7-3.7 11.9-10.9 11.9-10.9s-1.8 15.1-4.4 19.3C170.5 84 163.9 88.3 163.9 88.3z"/><path class="st1" d="M112 286.5c-4.8-2.3-2.9-2.9-0.7-7 3.2-5.9 6.3-11.9 9.2-17.9 6.7-13.6 14.2-27.8 12.9-43.4 -1.1-12.7-4.2-25.1-6.3-37.6 -1.7-10.2-3.8-21.9 0.3-31.8 4.8-11.6 14.7-21 22-31 3.1-4.2 6.3-8.6 8-13.6 1.3-3.7 0.1-7.2 5.2-6 0 21.3-26 34.7-32.3 53.8 -3.3 9.9-0.4 21.9 1.3 31.9 2 11.2 4.7 22.4 5.6 33.8C139.3 241.6 123.3 266.3 112 286.5z"/><path class="st2" d="M177.5 155.5c6 11.6 18.9 21 28.7 29.4 1.2-15.5 3.3-37.1-4.7-51 -4.1-7.1-21.1-15.2-28.7-9.5C164.5 130.3 174.1 149 177.5 155.5z"/><path class="st3" d="M206.6 185.9c-9.6-8.1-20.1-16.7-27.4-26.9 -5.2-7.2-15.3-27.8-7-34.8 6.7-5.7 23.1 1.1 28 6.8 4.4 5.1 5.5 13.3 6.2 19.7C207.7 162.2 207.5 174.2 206.6 185.9zM178.4 123.4c-15.9 0-4.3 25.8 0.1 32.9 6.6 10.7 17.8 19.4 27.2 27.5 0.8-11.6 0.9-23.5-0.7-35.1C202.9 133.6 195.2 123.4 178.4 123.4z"/><path class="st2" d="M183.6 102.6c9.9-12.7 18.9-25 35.4-28 6.5-1.2 18-4.2 24.4-1.6 5.2 2.1 11.3 8.3 15.4 12.1 4.2 3.8 12.6 11.9 4.4 16.1 -7.6 3.9-19.9 0-27.8-1.1 -9.6-1.3-19.5-5.1-29.2-3.5C198.5 97.9 191 100.3 183.6 102.6z"/><path class="st3" d="M182.2 103.5c8.1-10.6 17.3-24.6 30.8-28.1 8-2.1 16.7-3.2 24.9-3.2 7.7 0 13.1 5.7 18.8 10.5 4.9 4.2 16.7 14.7 5.9 19.2 -8.5 3.5-21.2-0.4-30-1.6 -11.2-1.6-20.4-4.8-31.6-2.1C194.7 99.7 188.4 101.6 182.2 103.5zM210.8 95.6c9 0 18.3 3.2 27.2 4.5 7.1 1 16 3.4 23.1 1.3 15.2-4.5-10.4-23.1-16.1-26.4 -8.1-4.7-22.6-1-31.4 1.3 -12.6 3.2-20.9 15.6-28.7 25.4C193 99.2 202.3 95.6 210.8 95.6z"/><path class="st2" d="M168.6 87.6c12.6 0.1 19.3-22.8 21.2-32.3 2.2-11.3 3.7-22.8 5.1-34.3 -7.5 1.5-15 3.3-22.3 5.6 -8.1 2.5-23.1 6.1-27.1 14.7 -4 8.4 5.2 20.9 9.4 27.6 2.9 4.5 6 8.9 9.3 13.1C164.6 82.6 167.8 87.6 168.6 87.6z"/><path class="st3" d="M168.6 88.1c-3.8 0-13.1-17.2-14.7-19.8 -4.5-7.1-13.7-20.1-8-28.6 5.5-8.2 19.5-11.6 28.3-14.2 7-2.1 14.1-3.8 21.3-5.1 -1.3 11.1-2.8 22.3-4.9 33.3 -1.2 6.2-2.4 12.1-5.4 17.8C182.2 77.2 176.2 88.1 168.6 88.1zM168.6 87.1c11.2 0 18.2-20.3 20.1-29 2.6-12 4.1-24.3 5.6-36.5 -8.7 1.7-17.4 3.9-25.8 6.8 -7.2 2.4-21.7 6.4-23.3 15.4 -1.6 8.8 7 20.1 11.5 26.9 2.6 3.9 5.3 7.6 8.1 11.3C165.4 82.8 167.7 86.8 168.6 87.1z"/><path class="st2" d="M143.2 96.5c9.3-8.2 1.5-28.4-2.4-37.3 -5.4-12.3-12-19.4-24.9-23.1 -20.8-6-43.4-7.4-64.9-8.2 11.9 14.8 23.9 29.8 37.1 43.6 7.3 7.6 15.6 13.8 24.8 19C119.9 94.5 135.3 103.4 143.2 96.5z"/><path class="st3" d="M136.2 99.2c-21.1 0-41.7-19.5-54.9-34.3C70.4 52.7 60 40.1 49.8 27.3c20.9 0.7 42.4 2.3 62.7 7.3C126 38 133.8 43.5 140 56.5 144.7 66.1 156.5 99.2 136.2 99.2zM51.9 28.4c20.3 25.2 40.6 54.5 71.8 66.9 6.2 2.5 16 5.8 20.6-1 5.7-8.4 0.5-23.3-2.8-31.7 -3.1-8-7.5-17.3-15.2-21.8 -6.7-4-15.2-5.5-22.8-6.9C86.6 30.6 69.2 29.1 51.9 28.4z"/><path class="st2" d="M139.2 109.4c-4.6-8.6-19.7-7.4-27.6-6.6 -9.8 1-23 3-30.7 9.7 -7.5 6.6-11.1 18.9-14.2 28 -2.4 7.1-4.6 14.2-6.4 21.5 15.5-3 31.9-6 46.3-12.6 8-3.6 14.8-10.1 20.9-16.3C132.5 128.2 143.5 117.4 139.2 109.4z"/><path class="st3" d="M59.7 162.6c2.8-11.7 6.4-23.4 11.2-34.5 2.6-6 5.6-13.1 11-17.1 7-5.2 17.5-7.1 25.9-8.3 14.9-2.1 42.3 0.3 28.3 21 -7.7 11.4-20 22.7-33 27.6C89.2 156.8 74.3 159.9 59.7 162.6zM119.5 102.9c-17.4 0-36.7 3.5-45.1 20 -6.1 12-10 25.4-13.4 38.4 17.3-3.4 38.7-6.2 53.1-17 8.4-6.3 17.3-14.2 22.6-23.4C144.4 107.6 131.5 102.9 119.5 102.9z"/><path class="st2" d="M143.2 181.8c-5.3-12.1-10.6-25-12.8-38.2 -1.3-7.8 0.4-13.6 4.4-20.5 3.3-5.7 9.9-16.7 17.6-16.6 14.4 0.2 16.3 29.8 17.1 39.3 1.3 16-0.6 29-6.3 44 -5.3 13.9-11.5 27.5-18.1 40.8C144.4 214.3 143.8 198 143.2 181.8z"/><path class="st3" d="M144.6 232.5c-0.6-15.5-1.2-31.1-1.8-46.6 -0.2-5.3-2.4-9.2-4.3-14.2 -4-10.2-8.7-21.6-9.2-32.7 -0.5-10.1 6.9-21.4 14-28.1 8.2-7.7 15.6-4.5 20.2 5 7.6 15.9 9.8 40.6 5.5 57.8C163.9 194.2 154.1 213.8 144.6 232.5zM152.3 107.1c-11.8 0-22.7 22.5-22 32.6 0.9 13.5 7.4 26.4 12 38.9 2.4 6.3 1.7 13.2 2 20 0.4 10 0.8 20 1.2 30 9.3-18.9 21.4-40.5 23.8-61.7 1.3-11.4 0-23.9-2.1-35.2C165.8 124.5 162.5 107.1 152.3 107.1z"/><path class="st2" d="M174.7 109.4c2.2-12.8 26.4-6.1 33.9-4.2 15.3 3.9 32.9 9.2 42.6 22.6 4.4 6 9.6 16 8.5 23.7 -0.8 6-6.1 11.2-10.2 15.1 -7.7 7.2-16.8 13.2-26 18.3 5.6-15.3 4.7-34.7-9.8-44.7C204.8 133.9 172.2 123.8 174.7 109.4z"/><path class="st3" d="M222.6 185.9c5.5-13.3 5.9-32.1-5.3-42.5 -10.2-9.5-24.9-12.9-35.8-21.6 -7.2-5.8-11.3-16.4 0.5-19.5 16.1-4.3 39.4 4.9 53.7 12 14.2 7.1 32 29 21.1 45C248.9 170.9 234.8 179.4 222.6 185.9zM188.4 102.6c-11 0-17.5 7.8-8.5 16.5 8.8 8.5 21.4 12.7 31.7 19.1 16 10 18.5 28.6 12.9 45.6 8.1-4.6 16.1-9.9 23.1-16.1 9.1-8 13.8-14.9 9.7-26.9 -4.4-12.9-13.2-21.9-25.6-27.3C218.4 107.8 203 102.6 188.4 102.6z"/><path class="st4" d="M42 174.6c11.4-12.3 32.2-22.3 49.2-21.2 14.1 1 23.1 15.4 29.3 26.6 8.4 15.1 11 31.2 15 47.9 -5.5-7.3-11.3-14.4-17.4-21.2 -7.4-8.1-16.2-18.6-27.9-19.2 -20.6-0.9-43.2 8.5-62.2 15.7C31.5 193.9 35.1 182 42 174.6z"/><path class="st4" d="M123.9 259.1c5.2-9.5 10.6-18.8 16.4-27.9 7.6-12.1 16-27.4 28.1-35.5 14.3-9.5 14.9-12.1 31.7-11.6 7.1 0.2 30.9 4 37 8.2 5.6 3.9 14.8 7.6 18 13.3 6.7 11.7 7.3 32.6 12 45.3 -12.7-18.2-52.8-36.4-69.2-36.3 -14.5 0.1-33.6 16.5-45.2 24.1C142.9 245 133.2 251.9 123.9 259.1z"/><path class="st5" d="M183.4 124c-9.9 9.7-36.2 9.3-45.8-0.9 -9-9.6-6.6-31.8 3.5-39.8 9.6-7.6 30-7.3 39.5 0.4C190.8 92.1 193.1 114.5 183.4 124z"/><path class="st0" d="M146.9 66c0 0 10.6 4.7 12.8 7.8 2.4 3.3 3.6 15.7 3.6 15.7s-12.3-9-14.6-13.4C147.4 73.9 146.9 66 146.9 66z"/><path class="st0" d="M175.9 92.6c0 0 8-8.3 11.6-9.4 3.9-1.1 16.1 1.9 16.1 1.9s-12.6 8.5-17.5 9.2C183.5 94.8 175.9 92.6 175.9 92.6z"/><path class="st0" d="M180.6 103.2c0 0 10.4-5.2 14.1-5 4 0.2 14.5 7.1 14.5 7.1s-14.7 3.8-19.6 2.9C187 107.8 180.6 103.2 180.6 103.2z"/><path class="st0" d="M170.4 85.4c0 0 1.9-5.5 3.3-6.7 1.5-1.3 7.7-2.5 7.7-2.5s-3.9 6.5-6 7.9C174.3 84.8 170.4 85.4 170.4 85.4z"/><path class="st0" d="M164 83.2c0 0 1.9-5.5 3.3-6.7 1.5-1.3 7.7-2.5 7.7-2.5s-3.9 6.5-6 7.9C167.9 82.6 164 83.2 164 83.2z"/><path class="st0" d="M180.9 110.9c0 0 5.2-2.5 7.1-2.3 2 0.2 7.2 3.8 7.2 3.8s-7.4 1.7-9.8 1.2C184.1 113.2 180.9 110.9 180.9 110.9z"/><path class="st0" d="M162.4 116.8c0 0 7.4 9 8 12.6 0.7 4-3.8 15.7-3.8 15.7s-6.9-13.5-7.1-18.5C159.4 124.1 162.4 116.8 162.4 116.8z"/><path class="st0" d="M139.7 142.9c0 0 0.6-11.6 2.6-14.7 2.2-3.4 13.4-9.1 13.4-9.1s-4 14.7-7.2 18.5C146.8 139.6 139.7 142.9 139.7 142.9z"/><path class="st0" d="M121.7 128.5c0 0 5.4-10.3 8.5-12.3 3.4-2.2 15.9-2.7 15.9-2.7s-9.7 11.7-14.2 13.8C129.6 128.4 121.7 128.5 121.7 128.5z"/><path class="st0" d="M113.6 107.1c0 0 9.9-6 13.7-6 4-0.1 15 6 15 6s-14.4 4.9-19.3 4.4C120.3 111.2 113.6 107.1 113.6 107.1z"/><path class="st0" d="M169.9 118.8c0 0 11.4 2.3 14.1 4.8 3 2.7 7 14.6 7 14.6s-13.9-6.1-17.2-9.9C172.1 126.4 169.9 118.8 169.9 118.8z"/><path class="st0" d="M182.1 112.3c0 0 11.6-0.8 14.9 0.9 3.6 1.8 10.6 12.2 10.6 12.2s-15-2.3-19.2-5C186.3 119 182.1 112.3 182.1 112.3z"/><path class="st0" d="M127.9 75.6c0 0 11.6 0 14.8 1.9 3.5 2 9.7 12.9 9.7 12.9s-14.9-3.2-18.8-6.2C131.6 82.6 127.9 75.6 127.9 75.6z"/><path class="st0" d="M117.6 94.5c0 0 9.9-6 13.7-6 4-0.1 15 6 15 6s-14.4 4.9-19.3 4.4C124.4 98.6 117.6 94.5 117.6 94.5z"/><path class="st5" d="M137.4 101.1c0.6-3.4 2.5-10.4 4.8-13 2.6-2.8 9.7-6.8 13.4-7.3 4.4-0.6 13.8 0.1 17.8 2.2 3 1.7 7 7.7 8.7 10.7 1.3 2.2 4.2 6.5 4.8 9 0.7 2.6 1.1 8.4 0 10.8 -1.2 2.6-6 6.1-8.5 7.5 -3.1 1.8-9.9 3.9-13.5 4.4 -4.6 0.6-14.3 1-18.7-0.7 -2.7-1.1-7.5-5.2-8.8-7.8C135.7 113.3 136.7 105 137.4 101.1z"/><line class="st0" x1="134.4" y1="140.3" x2="151.5" y2="114.6"/><path class="st6" d="M134.4 140.3c4.5-9.1 13.5-11 20.1-18.7C150.2 130.7 140.9 132.7 134.4 140.3z"/><line class="st0" x1="150.6" y1="142.8" x2="150" y2="111.9"/><path class="st6" d="M150.6 142.8c-1.5-10 4.7-16.8 5.8-26.9C158 125.9 151.5 132.8 150.6 142.8z"/><line class="st0" x1="176.2" y1="141.2" x2="157.2" y2="116.9"/><path class="st6" d="M176.2 141.2c-7.2-7.1-6.2-16.3-11.4-25C172 123.2 170.9 132.7 176.2 141.2z"/><line class="st0" x1="185.7" y1="140.3" x2="166.7" y2="115.9"/><path class="st6" d="M185.7 140.3c-7.2-7.1-6.2-16.3-11.4-25C181.5 122.3 180.4 131.7 185.7 140.3z"/><line class="st0" x1="191.7" y1="139.9" x2="172.8" y2="115.5"/><path class="st6" d="M191.7 139.9c-7.2-7.1-6.2-16.3-11.4-25C187.5 121.9 186.5 131.3 191.7 139.9z"/><line class="st0" x1="197.3" y1="127.7" x2="172.4" y2="109.3"/><path class="st6" d="M197.3 127.7c-8.8-4.9-10.4-14-17.7-21C188.4 111.5 189.9 120.9 197.3 127.7z"/><line class="st0" x1="197.7" y1="118.8" x2="172.9" y2="100.4"/><path class="st6" d="M197.7 118.8c-8.8-4.9-10.4-14-17.7-21C188.9 102.5 190.4 111.9 197.7 118.8z"/><line class="st0" x1="198.1" y1="113.8" x2="173.3" y2="95.4"/><path class="st6" d="M198.1 113.8c-8.8-4.9-10.4-14-17.7-21C189.2 97.6 190.7 106.9 198.1 113.8z"/><line class="st0" x1="200.1" y1="98" x2="169.6" y2="93.2"/><path class="st6" d="M200.1 98c-10.1-0.3-15.7-7.7-25.4-10.5C184.7 87.7 190.4 95.3 200.1 98z"/><line class="st0" x1="196.7" y1="85.7" x2="166.1" y2="90.1"/><path class="st6" d="M196.7 85.7c-9.8 2.7-17.2-2.7-27.4-2.5C179 80.4 186.7 86 196.7 85.7z"/><line class="st0" x1="172.2" y1="143.5" x2="153.3" y2="119.1"/><path class="st6" d="M172.2 143.5c-7.2-7.1-6.2-16.3-11.4-25C168 125.5 167 134.9 172.2 143.5z"/><line class="st0" x1="160.9" y1="146" x2="151.3" y2="116.6"/><path class="st6" d="M160.9 146c-4.3-9.2-0.3-17.4-2.2-27.4C163.1 127.6 158.9 136.1 160.9 146z"/><line class="st0" x1="121.9" y1="133.8" x2="139" y2="108.1"/><path class="st6" d="M121.9 133.8c4.5-9.1 13.5-11 20.1-18.7C137.6 124.2 128.3 126.2 121.9 133.8z"/><line class="st0" x1="134.6" y1="139.8" x2="142.7" y2="110"/><path class="st6" d="M134.6 139.8c1.4-10 9.3-14.7 13.2-24.1C146.4 125.7 138.3 130.5 134.6 139.8z"/><line class="st0" x1="124.3" y1="127.5" x2="141.5" y2="101.8"/><path class="st6" d="M124.3 127.5c4.5-9.1 13.5-11 20.1-18.7C140.1 117.8 130.8 119.8 124.3 127.5z"/><line class="st0" x1="123.9" y1="119.5" x2="141" y2="93.8"/><path class="st6" d="M123.9 119.5c4.5-9.1 13.5-11 20.1-18.7C139.6 109.8 130.3 111.8 123.9 119.5z"/><line class="st0" x1="121.9" y1="123.9" x2="139" y2="98.2"/><path class="st6" d="M121.9 123.9c4.5-9.1 13.5-11 20.1-18.7C137.6 114.3 128.3 116.3 121.9 123.9z"/><line class="st0" x1="116.3" y1="108.9" x2="145.2" y2="98.1"/><path class="st6" d="M116.3 108.9c9-4.7 17.4-1 27.3-3.4C134.7 110.3 126 106.5 116.3 108.9z"/>
</svg>